<?xml version="1.0" encoding="UTF-8" standalone="no"?>
<svg
   xmlns:dc="http://purl.org/dc/elements/1.1/"
   xmlns:cc="http://creativecommons.org/ns#"
   xmlns:rdf="http://www.w3.org/1999/02/22-rdf-syntax-ns#"
   xmlns:svg="http://www.w3.org/2000/svg"
   xmlns="http://www.w3.org/2000/svg"
   xmlns:sodipodi="http://sodipodi.sourceforge.net/DTD/sodipodi-0.dtd"
   xmlns:inkscape="http://www.inkscape.org/namespaces/inkscape"
   enable-background="new 0 0 99.176 99.176"
   height="99.176px"
   id="Layer_1"
   version="1.1"
   viewBox="0 0 99.176 99.176"
   width="99.176px"
   xml:space="preserve"
   sodipodi:docname="hand.svg"
   inkscape:version="0.92.3 (2405546, 2018-03-11)"><metadata
     id="metadata13"><rdf:RDF><cc:Work
         rdf:about=""><dc:format>image/svg+xml</dc:format><dc:type
           rdf:resource="http://purl.org/dc/dcmitype/StillImage" /><dc:title /></cc:Work></rdf:RDF></metadata><defs
     id="defs11" /><sodipodi:namedview
     pagecolor="#ffffff"
     bordercolor="#666666"
     borderopacity="1"
     objecttolerance="10"
     gridtolerance="10"
     guidetolerance="10"
     inkscape:pageopacity="0"
     inkscape:pageshadow="2"
     inkscape:window-width="2618"
     inkscape:window-height="1519"
     id="namedview9"
     showgrid="false"
     inkscape:zoom="5.6568542"
     inkscape:cx="-1.7121189"
     inkscape:cy="49.85442"
     inkscape:window-x="0"
     inkscape:window-y="0"
     inkscape:window-maximized="0"
     inkscape:current-layer="g6" /><g
     id="g6"><path
       d="m 83.722838,16.217806 c -2.940991,0 -4.860406,2.415455 -5.340051,5.289724 l -4.906813,29.404051 c -0.157589,0.944349 -0.796278,1.753536 -1.770217,1.753536 -0.995667,0 -1.876991,-0.799757 -1.79578,-1.753536 L 73.401258,9.9079905 c 0.248679,-2.9206258 -2.382445,-5.2909876 -5.338773,-5.2909876 -2.940989,0 -5.064139,2.3711374 -5.336216,5.2909876 L 59.234988,47.375394 c -0.08999,0.965717 -0.805226,1.753534 -1.774052,1.753534 -0.990555,0 -1.795781,-0.783711 -1.795781,-1.753534 V 6.5700591 c 0,-2.9132724 -2.382445,-5.2859243 -5.341329,-5.2859243 -2.955049,0 -5.337494,2.3726519 -5.337494,5.2859243 V 47.375394 c 0,0.969823 -0.801391,1.753534 -1.793224,1.753534 -0.968827,0 -1.689442,-0.787123 -1.771497,-1.753534 L 38.53459,13.372609 c -0.247875,-2.919426 -2.400339,-5.2897227 -5.338772,-5.2897227 -2.95505,0 -5.501088,2.3632087 -5.337495,5.2897227 l 2.887022,51.645743 -7.221466,-9.789404 c -2.138321,-3.251318 -6.312711,-4.354082 -9.373846,-2.472674 -3.045798,1.904201 -3.792229,6.075965 -1.685861,9.332348 0,0 14.38633,21.29274 19.346775,28.753805 4.910368,6.465494 23.339863,9.791073 36.815912,4.271745 C 79.412966,90.696552 83.660208,81.258453 84.17397,75.595265 L 89.080782,21.50753 c 0.0013,-2.913274 -2.401616,-5.289724 -5.357944,-5.289724 z"
       stroke-miterlimit="10"
       id="path2"
       style="fill:none;stroke:#ffffff;stroke-width:2.544;stroke-miterlimit:10;stroke-dasharray:none;stroke-opacity:1"
       inkscape:connector-curvature="0"
       sodipodi:nodetypes="sssssssssssssssssssscccccsscs" /></g></svg>